<svg version="1.1" id="Layer_1" xmlns="http://www.w3.org/2000/svg" xmlns:xlink="http://www.w3.org/1999/xlink" x="0px" y="0px"
	 width="100%" viewBox="0 0 400 352" enable-background="new 0 0 400 352" xml:space="preserve">
<path fill="#000000" opacity="1.000000" stroke="none" 
	d="
M283.215515,143.395798 
	C264.046570,147.323990 245.133621,149.932816 226.048935,151.387634 
	C208.794479,152.702927 191.552841,154.603073 174.232208,154.172119 
	C143.080887,153.397049 112.976631,146.339188 83.174187,137.923920 
	C73.905182,135.306641 67.156837,128.632111 60.685017,121.829033 
	C59.577671,120.665016 58.915794,119.327362 59.726604,117.764214 
	C60.610519,116.060112 62.178135,115.632797 63.975788,115.875664 
	C74.834648,117.342674 85.702866,118.745529 96.546570,120.317383 
	C101.796585,121.078400 103.239082,120.171532 103.599236,114.841209 
	C104.674774,98.922638 105.641113,82.996689 106.713608,67.077904 
	C107.327728,57.962639 108.077240,48.856564 108.741570,39.744583 
	C109.019859,35.927559 111.212227,33.829811 114.652412,32.518726 
	C122.828171,29.402874 131.346863,27.790806 140.001022,27.726044 
	C175.478500,27.460550 210.927887,28.480659 246.353561,30.505873 
	C254.819962,30.989880 263.291565,31.242538 271.680206,32.542564 
	C283.975830,34.448082 285.137482,35.810066 286.292725,47.841625 
	C288.245239,68.176575 290.382507,88.493996 292.266205,108.835075 
	C292.541870,111.811531 294.213196,112.673965 296.507721,113.566269 
	C302.362549,115.843094 308.590668,115.798477 314.668457,116.538857 
	C322.741913,117.522346 330.877991,117.989082 338.984833,118.704025 
	C341.361694,118.913643 343.948181,119.336853 344.759094,121.851440 
	C345.682709,124.715744 342.964539,125.817673 341.169861,127.180870 
	C331.571381,134.471680 320.261566,137.135483 308.702057,139.102646 
	C300.350555,140.523880 291.997803,141.937805 283.215515,143.395798 
z"/>
<path fill="#000000" opacity="1.000000" stroke="none" 
	d="
M200.475677,155.578125 
	C227.741318,155.725662 254.547119,155.844818 281.352966,155.956161 
	C288.946808,155.987701 289.296326,156.030914 288.194458,163.201370 
	C286.886688,171.711609 285.527069,180.223969 283.404144,188.610550 
	C279.999298,202.060928 269.630096,208.090561 256.003845,209.184799 
	C245.912933,209.995148 235.701843,209.425995 225.546753,209.288681 
	C214.218750,209.135513 209.780563,205.436050 207.125687,194.314468 
	C205.893127,189.151138 204.805664,183.949173 203.415237,178.829117 
	C202.658447,176.042297 201.195694,173.122375 197.974167,173.033661 
	C194.660736,172.942413 193.262604,175.902313 192.507111,178.690353 
	C190.988235,184.295715 189.696655,189.963379 188.350433,195.614670 
	C186.178482,204.732269 181.767578,208.880600 172.436935,209.181137 
	C160.960266,209.550797 149.444290,209.702560 137.979630,209.186340 
	C124.083626,208.560623 113.554100,198.086746 110.863052,182.981018 
	C109.583038,175.795883 109.001633,168.473663 107.464867,161.351410 
	C106.466621,156.724945 108.104202,155.935883 112.160095,155.941391 
	C136.135513,155.973984 160.111328,155.760864 184.086578,155.818344 
	C189.403809,155.831100 194.690781,154.460739 200.475677,155.578125 
z"/>
<path fill="#000000" opacity="1.000000" stroke="none" 
	d="
M253.346619,266.132080 
	C251.472687,276.279999 253.352966,286.037048 252.751556,295.771820 
	C252.159225,305.359650 246.578812,310.758942 239.055389,315.063934 
	C234.577621,317.626190 230.047455,320.097229 225.529999,322.589630 
	C212.019394,330.043854 197.867401,328.172150 183.762054,325.158600 
	C174.459961,323.171234 166.592819,318.115356 159.315796,312.158417 
	C151.085358,305.420990 149.761200,296.403687 152.047928,286.852295 
	C153.604431,280.351044 154.288757,274.094604 152.237061,267.723938 
	C151.083984,264.143494 152.542572,261.256897 154.054443,258.241028 
	C155.724121,254.910355 159.236771,252.769867 159.929611,248.776657 
	C160.113159,247.718842 161.366364,246.447464 162.562424,247.006287 
	C166.293182,248.749329 168.286667,245.387024 171.114594,244.560745 
	C177.551407,242.680008 183.289078,237.074203 190.824432,240.410004 
	C196.232620,236.667175 201.741760,240.260025 207.088470,239.976837 
	C213.135086,239.656601 218.672424,240.081207 224.104660,242.380035 
	C225.594177,243.010345 226.853821,242.693054 228.249680,242.772095 
	C235.056534,243.157578 241.920044,244.791061 246.910370,249.374603 
	C251.011673,253.141586 253.123810,258.750092 253.339554,264.664978 
	C253.351700,264.997833 253.344513,265.331421 253.346619,266.132080 
M179.995087,263.668121 
	C178.220200,264.084381 176.457214,264.562744 174.668274,264.905731 
	C168.391373,266.109100 163.157425,273.905090 164.355911,280.281830 
	C164.513214,281.118835 164.597046,281.997253 165.469269,282.358154 
	C170.461349,284.423920 174.872742,287.419830 179.187454,291.659729 
	C179.439148,290.000580 179.491592,289.194122 179.689529,288.425110 
	C180.923004,283.633118 181.658661,278.357971 185.837387,275.210876 
	C196.617645,267.092010 208.286835,269.772888 217.330719,277.559296 
	C220.407364,280.208160 221.491928,284.311676 223.223328,287.894104 
	C224.322830,290.169067 225.715424,291.202271 228.368164,290.086182 
	C236.824326,286.528442 239.360046,280.592285 235.817719,272.262634 
	C235.492706,271.498352 234.921280,270.771057 234.832977,269.985199 
	C234.359177,265.768890 231.465317,264.599243 227.872711,264.359406 
	C221.792770,263.953430 216.074890,263.054016 209.567978,264.571045 
	C203.794342,265.917114 196.478149,267.796570 189.904297,263.883789 
	C187.428864,262.410370 183.796448,262.701141 179.995087,263.668121 
z"/>
</svg>